<?xml version="1.0" standalone="no"?><!DOCTYPE svg PUBLIC "-//W3C//DTD SVG 1.1//EN" "http://www.w3.org/Graphics/SVG/1.1/DTD/svg11.dtd"><svg t="1684809594920" class="icon" viewBox="0 0 1024 1024" version="1.1" xmlns="http://www.w3.org/2000/svg" p-id="13039" xmlns:xlink="http://www.w3.org/1999/xlink" width="64" height="64"><path d="M363.069551 456.17353 251.392052 456.17353 251.392052 344.483752l-74.424037 0 0 111.689778L65.289494 456.17353l0 74.426083 111.677499 0 0 111.648846 74.424037 0L251.391029 530.600637l111.677499 0L363.068528 456.17353 363.069551 456.17353zM735.379045 493.399363c61.588707 0 111.310132-50.063209 111.310132-111.649869 0-61.61429-49.722448-111.690802-111.310132-111.690802-11.998265 0-23.338544 1.837858-34.022884 5.421476 21.027919 30.189579 33.6811 66.824965 33.6811 106.269325 0 39.417755-12.653181 76.157517-33.6811 106.256022C712.040501 491.497037 723.38078 493.399363 735.379045 493.399363L735.379045 493.399363zM549.250904 493.399363c61.639872 0 111.36232-50.063209 111.36232-111.649869 0-61.61429-49.722448-111.690802-111.36232-111.690802-61.588707 0-111.677499 50.076512-111.677499 111.690802C437.573405 443.336154 487.662197 493.399363 549.250904 493.399363L549.250904 493.399363zM795.653827 573.769832c30.873148 26.962072 51.402717 61.785182 51.402717 105.746416l0 74.424037 111.651916 0 0-74.424037C958.709483 622.193705 870.31527 587.02881 795.653827 573.769832L795.653827 573.769832zM549.250904 567.825446c-74.399477 0-223.354997 37.264719-223.354997 111.690802l0 74.424037 446.735577 0 0-74.424037C772.631484 605.090165 623.676987 567.825446 549.250904 567.825446L549.250904 567.825446zM549.250904 567.825446" fill="#999999" p-id="13040"></path></svg>