<?xml version="1.0" standalone="no"?><!DOCTYPE svg PUBLIC "-//W3C//DTD SVG 1.1//EN" "http://www.w3.org/Graphics/SVG/1.1/DTD/svg11.dtd"><svg t="1705484478239" class="icon" viewBox="0 0 1024 1024" version="1.1" xmlns="http://www.w3.org/2000/svg" p-id="5872" xmlns:xlink="http://www.w3.org/1999/xlink" width="64" height="64"><path d="M512 56.888889C261.688889 56.888889 56.888889 261.688889 56.888889 512s204.8 455.111111 455.111111 455.111111 455.111111-204.8 455.111111-455.111111-204.8-455.111111-455.111111-455.111111z m244.622222 676.977778l-45.511111 39.822222c-45.511111 17.066667-153.6 45.511111-312.888889-142.222222-176.355556-204.8-119.466667-329.955556-96.711111-352.711111l45.511111-39.822223 22.755556 5.688889 96.711111 119.466667v22.755555l-51.2 34.133334c-22.755556 22.755556-5.688889 45.511111 17.066667 85.333333 17.066667 22.755556 51.2 73.955556 79.644444 91.022222 39.822222 28.444444 56.888889 51.2 85.333333 34.133334l45.511111-39.822223h17.066667l96.711111 113.777778v28.444445z" fill="#43cf7c" p-id="5873"></path></svg>